PathFileType	4	(X/Y/Z)	 s10c0302.trc
DataRate	CameraRate	NumFrames	NumMarkers	Units	OrigDataRate	OrigDataStartFrame	OrigNumFrames
200	200	4	50	mm	200	1	2000
Frame#	Time	racr			lacr			c7			jug			rlel			rdr			llel			ldr			s2			lic			ric			lasi			rasi			rpsi			lpsi			rgt			lgt			rth1			rth2			rth3			rth4			rlfc			rmfc			rsh1			rsh2			rsh3			rsh4			rlmal			rmmal			rcal			rtoe			rmt5			lth1			lth2			lth4			lth3			llfc			lmfc			llmal			lmmal			lcal			lmt5			lsh1			lsh2			lsh3			lsh4			ltoe			SBIKE			LBIKE			RBIKE			
		X1	Y1	Z1	X2	Y2	Z2	X3	Y3	Z3	X4	Y4	Z4	X5	Y5	Z5	X6	Y6	Z6	X7	Y7	Z7	X8	Y8	Z8	X9	Y9	Z9	X10	Y10	Z10	X11	Y11	Z11	X12	Y12	Z12	X13	Y13	Z13	X14	Y14	Z14	X15	Y15	Z15	X16	Y16	Z16	X17	Y17	Z17	X18	Y18	Z18	X19	Y19	Z19	X20	Y20	Z20	X21	Y21	Z21	X22	Y22	Z22	X23	Y23	Z23	X24	Y24	Z24	X25	Y25	Z25	X26	Y26	Z26	X27	Y27	Z27	X28	Y28	Z28	X29	Y29	Z29	X30	Y30	Z30	X31	Y31	Z31	X32	Y32	Z32	X33	Y33	Z33	X34	Y34	Z34	X35	Y35	Z35	X36	Y36	Z36	X37	Y37	Z37	X38	Y38	Z38	X39	Y39	Z39	X40	Y40	Z40	X41	Y41	Z41	X42	Y42	Z42	X43	Y43	Z43	X44	Y44	Z44	X45	Y45	Z45	X46	Y46	Z46	X47	Y47	Z47	X48	Y48	Z48	X49	Y49	Z49	X50	Y50	Z50	
1	0.0050	409.491044	1305.579133	-27.282914	435.207634	1318.319615	-343.859711	395.550674	1349.434027	-187.876071	407.576839	1208.254179	-185.201216	514.999317	1065.290602	30.163864	646.771712	877.238316	-9.092782	537.878835	1066.313997	-412.461129	668.131104	883.819784	-370.765003	-100.270285	1107.300949	-210.148281	71.124811	1099.195916	-354.008922	79.059416	1095.003249	-74.704194	86.469377	1010.058553	-331.484010	68.990085	1017.918321	-73.371566	-51.838177	1157.114789	-155.311690	-39.076745	1154.135763	-263.733065	-55.610606	1016.828047	-13.479336	-50.852428	989.454713	-407.535868	31.152080	924.235812	21.545627	120.105192	920.186631	19.790613	192.314854	873.883574	22.194137	130.704388	956.206288	10.798753	304.255674	834.719924	13.053745	314.791617	830.620408	-104.837943	253.258583	726.729799	22.007957	260.000356	640.156598	1.324290	222.839167	564.602312	-17.766164	292.703035	639.955301	-18.728612	206.239614	466.602002	-46.263620	236.859400	490.485986	-120.468876	159.360609	447.695239	-98.360836	399.125705	422.492012	-79.541936	312.978842	396.478371	-22.808367	15.724244	876.576512	-432.756236	91.896133	834.475135	-426.629247	116.712657	859.527089	-415.072766	136.554066	757.268635	-425.396768	211.018649	671.623007	-411.665536	218.040286	663.062425	-292.075116	-22.369805	378.866897	-380.238567	-6.322325	374.447947	-301.185678	-82.180109	379.466385	-334.958451	35.815412	247.921559	-397.697373	120.192998	585.463531	-431.619974	97.149858	501.381932	-412.529386	32.346107	442.582248	-402.644212	124.065381	490.885550	-388.350077	119.009555	227.340682	-339.088497	-204.400917	833.799250	-224.662881	-78.362305	83.037094	-422.674630	-102.199802	81.339092	-23.979649	
2	0.0100	409.536932	1305.580877	-27.272385	435.208886	1318.295850	-343.912682	395.532081	1349.426413	-187.842857	407.635068	1208.192737	-185.236164	515.023409	1065.305822	30.210690	646.793422	877.213922	-9.097167	537.807847	1066.268280	-412.583827	668.128397	883.821788	-370.716200	-100.282402	1107.293483	-210.156170	71.107750	1099.179303	-354.032781	79.129499	1095.010134	-74.630365	86.447936	1010.047186	-331.495924	68.725123	1017.602426	-73.802097	-51.861506	1157.102662	-155.305446	-39.041475	1154.124127	-263.736631	-55.541188	1016.811451	-13.478920	-50.886399	989.457992	-407.543006	31.246877	924.205040	21.557748	120.184195	920.171171	19.786033	192.405706	873.852841	22.165772	130.808039	956.174653	10.785990	304.358111	834.669376	13.030133	314.812402	830.594961	-104.909373	253.332748	726.717294	22.006815	260.026373	640.137113	1.309425	222.862297	564.598256	-17.774629	292.749340	639.937547	-18.768716	206.245941	466.589482	-46.239457	236.805686	490.463734	-120.482414	159.341899	447.683024	-98.330615	399.108432	422.537106	-79.514180	313.006557	396.480532	-22.776099	15.689750	876.570229	-432.753468	91.876098	834.478703	-426.663142	116.705042	859.512504	-415.091589	136.546287	757.285482	-425.428983	211.005403	671.630205	-411.728391	218.058251	663.077807	-292.101260	-22.349980	378.852695	-380.240886	-6.336268	374.481379	-301.196261	-82.124062	379.470776	-334.946233	35.834633	247.915549	-397.715552	120.176227	585.450030	-431.644978	97.135818	501.417757	-412.574444	32.335541	442.582552	-402.658153	124.056116	490.894367	-388.370269	119.027290	227.340979	-339.105746	-204.416149	833.803216	-224.665669	-78.328781	83.046095	-422.642951	-102.175167	81.339379	-23.981480	
3	0.0150	409.568062	1305.572083	-27.311527	435.220206	1318.272696	-343.962879	395.538268	1349.418011	-187.872866	407.703081	1208.125149	-185.236073	515.033044	1065.302589	30.201766	646.789126	877.223605	-9.076722	537.729227	1066.237166	-412.701344	668.123624	883.822032	-370.726825	-100.270795	1107.294759	-210.135622	71.093959	1099.169170	-354.015524	79.156064	1094.974143	-74.630389	86.442642	1010.051955	-331.489813	69.266023	1018.003926	-73.090300	-51.836532	1157.098968	-155.292186	-39.067395	1154.128785	-263.714633	-55.515059	1016.796958	-13.463123	-50.896807	989.460655	-407.536197	31.297228	924.180350	21.534791	120.234598	920.131167	19.771215	192.462595	873.813966	22.133711	130.857992	956.126737	10.775048	304.404430	834.642412	12.979752	314.834342	830.523156	-104.969365	253.343812	726.703923	21.999308	260.024278	640.135213	1.262241	222.839141	564.590249	-17.786763	292.738918	639.924182	-18.788824	206.217340	466.570593	-46.248290	236.761417	490.459029	-120.520780	159.303410	447.638498	-98.341318	399.091647	422.563881	-79.516521	312.973954	396.496223	-22.766149	15.666405	876.585074	-432.764624	91.857285	834.489697	-426.675022	116.682246	859.519266	-415.108666	136.536849	757.307323	-425.462302	210.969063	671.659097	-411.781796	218.041425	663.093325	-292.148006	-22.322913	378.853150	-380.247856	-6.262896	374.433266	-301.201640	-82.093079	379.459069	-334.939035	35.843988	247.889570	-397.701698	120.134591	585.461916	-431.669187	97.128533	501.416798	-412.623672	32.334292	442.564990	-402.669414	124.062887	490.897651	-388.401317	119.035645	227.309844	-339.116055	-204.416267	833.803334	-224.669892	-78.335421	83.037193	-422.649757	-102.157431	81.345565	-23.967617	
4	0.0200	409.550099	1305.566726	-27.371379	435.221501	1318.252589	-344.030981	394.144342	1349.401587	-187.675623	407.742101	1208.070722	-185.296880	515.015465	1065.290314	30.196275	646.791751	877.219800	-9.071690	537.674079	1066.300822	-412.720256	668.111513	883.857924	-370.805340	-100.263845	1107.284237	-210.133436	71.093138	1099.173541	-354.016153	79.297547	1095.058173	-74.685664	86.536720	1010.279330	-331.744504	69.249941	1018.002145	-73.139578	-51.832746	1157.104882	-155.302137	-39.101934	1154.138215	-263.721707	-55.496118	1016.774210	-13.472509	-50.906591	989.451202	-407.532411	31.307083	924.165714	21.515327	120.459470	920.009438	19.754467	192.118664	873.257407	21.331072	130.867993	956.075023	10.719940	304.400047	834.597331	12.898635	314.857448	830.499337	-104.994849	253.342898	726.700581	21.949931	260.192128	640.332777	1.182844	222.798943	564.569976	-17.784941	292.640415	640.012360	-18.787710	206.034133	466.667495	-46.188353	236.916777	490.649523	-120.333753	159.249726	447.599462	-98.340550	399.041824	422.595713	-79.543016	312.811696	396.575465	-22.771670	15.633467	876.584323	-432.778387	91.829761	834.497325	-426.704824	116.554036	859.727354	-415.282692	137.061313	757.716655	-425.541307	210.952144	671.668905	-411.827617	217.829522	663.169884	-292.139471	-22.292315	378.842723	-380.254158	-6.222168	374.407434	-301.204750	-82.064045	379.466991	-334.962224	35.852308	247.885019	-397.713001	120.104665	585.458303	-431.698829	97.127168	501.410331	-412.657801	32.406475	442.349968	-402.443471	123.944471	491.101314	-388.165353	119.056710	227.215657	-339.086652	-204.415720	833.803699	-224.671485	-78.359036	83.061309	-422.655723	-102.194843	81.351133	-23.974990	
